<svg id="Слой_1" xmlns="http://www.w3.org/2000/svg" viewBox="0 0 144 66"><path d="M122.6 65.9c-.7-.1-1.2-.4-1.7-.8l-8-4.7-8.4 4.9c-.7.4-1.6.4-2.3.2L82.4 54.1c-.6-.6-.8-.9-1-1.6V30c.2-.6.3-.9.7-1.4l8.6-5.1V13.3c.1-.8.4-1.2.9-1.7L111 .2c.6-.2 1-.3 1.8-.1L133 11.8c.5.4.7.8.9 1.5v10.3l9.5 5.6c.5.7.8 1.1.7 2.1l-.2 21.7c-.2 1.5-1.3 1.8-2.6 2.5l-17.8 10.3c-.3 0-.5.1-.9.1zm.2-4.6h.2l16.8-9.8V31.9l-17.5-10.2h-.2l-14.9 8.5v.1l4.7 2.6 8.8-5c1.3-.5 1.4-.5 2.8.3l10 6c.6.4.8.8.9 1.5V47c-.2 1.1-.7 1.6-1.8 2.1L117 57.9v.1l5.8 3.3zm-19.8-.1c5.5-3.2 11-6.4 16.5-9.7V33.3l-5.7 3.2v10.2c-.2.8-.3 1.1-.9 1.7l-9.4 5.6c-1.3.5-2.2-.3-3.2-.9l-8.6-4.8c-.6-.5-.8-.9-.9-1.6V28.5l-5.3 3.1.1 19.6 17.4 10zm-.4-11.5l4.9-2.9L95 39.5v5.9l7.6 4.3zm21.2-.6l6.2-3.5V37l-6.3-3.5.1 15.6zm-14.2-6v-6.6l-8-4.6c-.6-.5-.8-.8-.9-1.5V18.9c.1-.9.3-1.1.9-1.7l10.4-5.8c.9 0 1.3 0 2.1.7l15.4 9v-6.4L112.1 4.6h-.2c-5.6 3.3-11.2 6.7-16.9 10v20.2l14.6 8.3zm-4.7-16.5l12.8-7.3.1-.1-5.6-3.2-7.4 4.3.1 6.3z" fill-rule="evenodd" clip-rule="evenodd" fill="#b1b1b1"/><path d="M2.3 12.6v-11h6.3v1H3.5v3.7h2.2c.6 0 1.1.1 1.5.2.5.1.8.3 1.2.6.3.3.6.6.8 1 .1.5.2.9.2 1.4 0 .5-.1.9-.3 1.3-.2.4-.4.7-.8 1-.3.3-.7.5-1.2.6-.5.1-1 .2-1.5.2H2.3zm3.3-1c.9 0 1.6-.2 2-.6.5-.4.7-.9.7-1.5 0-.7-.2-1.2-.7-1.5-.5-.3-1.2-.5-2-.5H3.5v4.2h2.1zm7.9-.6l6.4-9.4h1.4v11h-1.1V3.2l-6.4 9.5h-1.4v-11h1.1V11zm13.2-4.6h.5c.4 0 .7 0 1-.1.3-.1.6-.2.9-.4.3-.2.5-.4.6-.6.2-.3.3-.6.3-.9 0-.7-.2-1.2-.7-1.5-.4-.3-1-.5-1.7-.5-.5 0-1 .1-1.4.4-.4.3-.7.6-.9 1l-.9-.7c.3-.6.8-1 1.3-1.3.6-.3 1.2-.4 1.9-.4.5 0 1 .1 1.4.2.4.1.8.3 1.1.6.3.2.5.6.7.9.2.4.2.8.2 1.3 0 .3-.1.6-.2.9-.1.3-.3.5-.5.7-.2.2-.5.4-.7.6-.3.2-.5.3-.8.3.3 0 .6.1 1 .2.3.1.6.3.9.5.3.2.5.5.7.8.2.3.3.7.3 1.2s-.1 1-.3 1.4c-.2.4-.5.8-.9 1.1-.4.3-.8.5-1.3.7-.5.2-1 .2-1.6.2-.5 0-.9-.1-1.3-.2s-.7-.3-1-.5c-.3-.2-.6-.4-.8-.7l-.6-.9 1-.6c.1.3.3.6.4.8l.6.6c.2.2.5.3.8.4.3.1.7.1 1.1.1.9 0 1.6-.2 2.1-.6.5-.4.7-1 .7-1.7 0-.4-.1-.8-.3-1.1-.2-.3-.4-.5-.7-.7-.3-.2-.7-.3-1.1-.4-.4-.1-.9-.1-1.3-.1h-.5v-1zm8-4.8h1.1v4.8h6V1.6H43v11h-1.1V7.4h-6v5.2h-1.1v-11zm12.7 10h5.9v1h-7v-11h6.8v1h-5.7v3.8h5.3v1h-5.3v4.2zm18.3-.8c-.2.3-.4.5-.7.8-.3.3-.6.5-.9.7-.3.2-.7.3-1.2.5-.4.1-.9.2-1.4.2-.8 0-1.6-.1-2.3-.4-.7-.3-1.3-.7-1.8-1.2s-.9-1.1-1.2-1.8c-.2-.9-.3-1.6-.3-2.5 0-.8.1-1.6.4-2.3.3-.7.7-1.3 1.2-1.8s1.1-.9 1.8-1.2c.7-.3 1.5-.4 2.3-.4.4 0 .8 0 1.2.1.4.1.8.2 1.1.4.3.2.7.3.9.6.3.2.5.5.7.7l-.9.7c-.1-.2-.3-.4-.5-.5-.2-.2-.4-.3-.7-.5-.3-.1-.5-.2-.8-.3-.3-.1-.6-.1-1-.1-.7 0-1.4.1-1.9.4-.6.3-1 .6-1.4 1-.4.4-.7.9-.9 1.5-.2.5-.4 1.1-.4 1.7 0 .6.1 1.3.3 1.8.2.6.5 1.1.9 1.5.4.4.9.8 1.4 1 .6.3 1.2.4 1.9.4.6 0 1.2-.1 1.8-.4.6-.3 1-.7 1.4-1.2l1 .6zM13.9 28.3H9.3V18.2H8.1v10.1H3.5V18.2H2.3v11.2H15V18.2h-1.1zm9.5-4.9l3.9-5.2h-1.4l-3.5 4.7h-1.9v-4.7h-1.2v11.2h1.2V24h1.9l3.6 5.3h1.3zm16-3.9c-.5-.5-1.1-.9-1.8-1.2-.7-.3-1.5-.4-2.3-.4-.8 0-1.6.1-2.3.4-.7.3-1.3.7-1.8 1.2s-.9 1.1-1.2 1.9c-.3.7-.4 1.5-.4 2.4 0 .9.1 1.6.4 2.4.3.7.7 1.3 1.2 1.9.5.5 1.1.9 1.8 1.2.7.3 1.5.4 2.3.4.8 0 1.6-.1 2.3-.4.7-.3 1.3-.7 1.8-1.2s.9-1.1 1.2-1.9c.3-.7.4-1.5.4-2.4 0-.9-.1-1.6-.4-2.4-.3-.7-.7-1.3-1.2-1.9zm.1 6.1c-.2.6-.5 1.1-.9 1.5-.4.4-.9.8-1.5 1.1-.6.3-1.2.4-1.9.4s-1.4-.1-1.9-.4c-.6-.3-1.1-.6-1.5-1.1-.4-.4-.7-1-.9-1.5-.2-.6-.3-1.2-.3-1.9s.1-1.3.3-1.9c.2-.6.5-1.1.9-1.6.4-.4.9-.8 1.5-1.1.6-.3 1.2-.4 1.9-.4s1.4.1 1.9.4c.6.3 1.1.6 1.5 1.1.4.4.7 1 .9 1.6.2.6.3 1.2.3 1.9.1.7 0 1.3-.3 1.9zm22-7.4h-1.1l-4.8 11.2h1.2l1.2-2.9h5.8l1.2 2.9h1.3l-4.8-11.2zm-3.1 7.2l2.5-5.9 2.5 5.9h-5zm-13.1-7.2V26c0 .3 0 .7-.1 1-.1.3-.2.6-.3.8l-.6.6c-.3.1-.6.2-1 .2h-.2v1h.3c.6 0 1.1-.1 1.5-.3.4-.2.7-.5.9-.9.2-.3.4-.7.4-1.1.1-.4.1-.8.1-1.2v-6.9h4.9v10.1h1.1V18.2h-7zM4.6 61l12.3-18h2.7v21.1h-2.1V46h-.1L5 64.1H2.3V43h2.1l.2 18zm35.7-18v21.1h-2.1V45H27.3v19.1h-2.1V43h15.1zm16.1 17.5l7-17.5h3.3v21.1h-2.1V45.8h-.1l-7.6 18.3h-1.1l-7.6-18.3h-.1v18.3H46V43h3.3l7.1 17.5z" fill="#231f20"/><path fill="#ec1c24" d="M0 35.6h68.1v2H0z"/></svg>